PathFileType	4	(X/Y/Z)	OpenSim_Sub09_CSStiffKnee_Magnet.trc
DataRate	CameraRate	NumFrames	NumMarkers	Units	OrigDataRate	OrigDataStartFrame	OrigNumFrames
100	100	23	8	m	100	891	7127
Frame#	Time	torso_imu_offset_imu	pelvis_imu_offset_imu	tibia_r_imu_offset_imu	femur_r_imu_offset_imu	tibia_l_imu_offset_imu	femur_l_imu_offset_imu	toes_r_imu_offset_imu	toes_l_imu_offset_imu
				X1	Y1	Z1	X2	Y2	Z2	X3	Y3	Z3	X4	Y4	Z4	X5	Y5	Z5	X6	Y6	Z6	X7	Y7	Z7	X8		Y8	Z8	

891	8.90000000	-0.87535419	-0.14292541	0.33159073	-0.39654439	0.13559645	-0.86899317	-0.67456262	-0.51830323	-0.04009672	-0.76557752	-0.35103593	0.12445271	-0.33671641	0.78285618	0.15873149	-0.51443149	0.47897756	0.14095792	-0.70593797	-0.10407022	-0.31412429	-0.88888711	0.09086883	-0.05200089
892	8.91000000	-0.87311810	-0.14099688	0.32656290	-0.39546155	0.13064777	-0.86390041	-0.66934234	-0.51965054	-0.04007945	-0.76308740	-0.36110606	0.12552724	-0.34365165	0.78632461	0.12776462	-0.51893445	0.47645054	0.14061128	-0.70837947	-0.10610192	-0.31855530	-0.88660000	0.09009233	-0.07666612
893	8.92000000	-0.87609509	-0.13540712	0.33593443	-0.40628504	0.12709179	-0.85216701	-0.66909249	-0.52805530	-0.03179247	-0.75695733	-0.36596084	0.12451425	-0.35134376	0.78553396	0.11368131	-0.52328808	0.46983806	0.13831642	-0.71063379	-0.11167722	-0.32204771	-0.88145545	0.08896716	-0.08905031
894	8.93000000	-0.87790257	-0.13699799	0.33193224	-0.40748850	0.11901369	-0.85961519	-0.66348071	-0.53048651	-0.03830589	-0.75627157	-0.36497917	0.11996017	-0.36469671	0.78115899	0.09243073	-0.53359839	0.47212866	0.13319247	-0.70518824	-0.10915215	-0.32076373	-0.88071443	0.09105939	-0.10075796
895	8.94000000	-0.87615213	-0.13151117	0.32643596	-0.40052087	0.11544145	-0.86126896	-0.66366380	-0.53780435	-0.03362960	-0.74888687	-0.37125465	0.13007253	-0.37245691	0.77860965	0.07917952	-0.53575581	0.46826686	0.12252252	-0.70320732	-0.10622806	-0.32330127	-0.88234899	0.09241002	-0.11731984
896	8.95000000	-0.87387960	-0.12568794	0.32971243	-0.40599192	0.11047617	-0.86378343	-0.65915020	-0.54344821	-0.03189412	-0.75077584	-0.37875480	0.12986890	-0.38422219	0.77390089	0.06708721	-0.54364793	0.46810997	0.10149100	-0.70382528	-0.10379496	-0.31992721	-0.86746350	0.08859279	-0.13449528
897	8.96000000	-0.87439464	-0.13082352	0.32832249	-0.41309802	0.10673124	-0.86125035	-0.65794550	-0.54350867	-0.03055839	-0.75428474	-0.38438937	0.13152579	-0.39247616	0.76422016	0.06404524	-0.55129747	0.46410702	0.09562875	-0.70241599	-0.10743071	-0.32169400	-0.86576298	0.08787833	-0.15135818
898	8.97000000	-0.87898121	-0.12171522	0.32724141	-0.40961897	0.10533105	-0.86314585	-0.65105053	-0.55453962	-0.02462818	-0.74708576	-0.39229715	0.13283986	-0.40336035	0.76269998	0.06050552	-0.56200340	0.46000463	0.08664745	-0.69814813	-0.11480897	-0.32474931	-0.85858767	0.08445852	-0.16443587
899	8.98000000	-0.88057367	-0.11753386	0.32594034	-0.41118365	0.09996338	-0.86486771	-0.64845820	-0.55976308	-0.03439749	-0.73959265	-0.39943809	0.13965536	-0.41776694	0.75690860	0.05294084	-0.56465905	0.45587823	0.08403897	-0.69647664	-0.11443699	-0.32698808	-0.85101697	0.08404501	-0.17092024
900	8.99000000	-0.87936088	-0.11671596	0.32185816	-0.41470345	0.09428367	-0.86470269	-0.64432091	-0.56224713	-0.03293693	-0.73567515	-0.40275419	0.13419591	-0.42710095	0.74722051	0.05086855	-0.57931281	0.44487883	0.07541814	-0.69894388	-0.11403740	-0.32695267	-0.84732912	0.07751857	-0.18533192
901	9	-0.88500589	-0.11605316	0.31857215	-0.41461162	0.09435472	-0.86155482	-0.63872964	-0.56837917	-0.02810685	-0.73823689	-0.40232349	0.13362650	-0.43812554	0.74002113	0.04718425	-0.58371454	0.43848674	0.06318096	-0.69698708	-0.11133221	-0.33159321	-0.84052686	0.07224449	-0.20535974
902	9.01000000	-0.88698090	-0.11350893	0.31944674	-0.41785479	0.08730866	-0.86740893	-0.63489459	-0.57398965	-0.03630759	-0.73037758	-0.40860237	0.14153674	-0.45647389	0.73430591	0.04707807	-0.58986795	0.43513374	0.07369442	-0.69006293	-0.11748027	-0.33616000	-0.83522339	0.06355304	-0.21421064
903	9.02000000	-0.88729021	-0.10808350	0.32135599	-0.41995373	0.07378201	-0.86286257	-0.62882068	-0.57348534	-0.02637689	-0.72448258	-0.41518684	0.14590487	-0.46551026	0.72249414	0.05611581	-0.59176535	0.42585198	0.07765399	-0.68929940	-0.11953145	-0.34354386	-0.82986170	0.05201971	-0.22531097
904	9.03000000	-0.88361247	-0.10885243	0.31306992	-0.42387268	0.06520414	-0.86447186	-0.62511843	-0.58300560	-0.02545426	-0.72634083	-0.42539961	0.14427724	-0.48673124	0.71097452	0.06088373	-0.59757889	0.41547704	0.08277681	-0.69416207	-0.12404371	-0.34909338	-0.82876870	0.04035739	-0.23737999
905	9.04000000	-0.88446864	-0.10893699	0.31576749	-0.42277059	0.05249073	-0.86126337	-0.62286995	-0.59113744	-0.02352639	-0.72463152	-0.42708001	0.14681170	-0.50043326	0.69610317	0.06657983	-0.60332651	0.41098058	0.09377926	-0.69179106	-0.12577177	-0.35308642	-0.82468338	0.02182943	-0.23660546
906	9.05000000	-0.89404077	-0.10242749	0.31704719	-0.42432824	0.04928567	-0.86566149	-0.62133934	-0.59057859	-0.02590558	-0.71711103	-0.42473835	0.15144769	-0.50879780	0.68581513	0.07597909	-0.60998591	0.39982952	0.09633970	-0.68992963	-0.12852024	-0.35582534	-0.82256062	0.00371161	-0.24159236
907	9.06000000	-0.89203903	-0.10223646	0.31211002	-0.43185991	0.04589797	-0.86321726	-0.61586988	-0.59550930	-0.02237378	-0.71965381	-0.42993500	0.15759575	-0.52373102	0.67375945	0.08564479	-0.61968952	0.39083886	0.10678881	-0.69185235	-0.13133165	-0.35724351	-0.82081648	-0.01598369	-0.25228720
908	9.07000000	-0.88462500	-0.09301499	0.30916749	-0.42931068	0.03698556	-0.86779207	-0.61037663	-0.59918401	-0.01886584	-0.71462274	-0.43482931	0.15395819	-0.53692970	0.66295939	0.09636114	-0.62385953	0.38357476	0.10840804	-0.69349630	-0.13434797	-0.36211669	-0.81686811	-0.03088446	-0.25556162
909	9.08000000	-0.89302228	-0.09339713	0.30644994	-0.42917417	0.03186095	-0.86286127	-0.60846182	-0.60201219	-0.03640756	-0.71004510	-0.43942875	0.16030583	-0.55374969	0.64388689	0.11187352	-0.63385306	0.37210201	0.12096226	-0.69741663	-0.14045200	-0.37066387	-0.81856031	-0.04457730	-0.26092018
910	9.09000000	-0.89501968	-0.09270523	0.30828615	-0.43119490	0.02602309	-0.85835712	-0.60194395	-0.60857771	-0.04646017	-0.70761827	-0.43967613	0.16076573	-0.56553175	0.63487511	0.11715191	-0.63578240	0.36630340	0.12562811	-0.69883535	-0.14477936	-0.37564929	-0.81478423	-0.05184203	-0.26673049
911	9.10000000	-0.89362578	-0.08624207	0.30483237	-0.43680574	0.02194781	-0.86148722	-0.60366409	-0.60982896	-0.04453182	-0.70997986	-0.44496397	0.15390773	-0.57125498	0.61750285	0.12439321	-0.64371504	0.35845264	0.13074287	-0.69634466	-0.15168791	-0.38059708	-0.81549461	-0.06473802	-0.28227820
912	9.11000000	-0.89435530	-0.07907202	0.30508362	-0.43895904	0.02446151	-0.85889292	-0.60391613	-0.61254347	-0.04362142	-0.70162624	-0.44528805	0.15747113	-0.59182556	0.59929040	0.13344383	-0.64810175	0.34208310	0.14199496	-0.69738134	-0.15918368	-0.38799236	-0.80915056	-0.07773650	-0.29494500
913	9.12000000	-0.89482200	-0.07844326	0.30330272	-0.43796468	0.01829910	-0.85262492	-0.60115263	-0.61605123	-0.04621931	-0.70078230	-0.45572374	0.15577094	-0.59994938	0.59437895	0.12782481	-0.65286696	0.33798991	0.14248695	-0.69871464	-0.16151611	-0.38871265	-0.80272674	-0.08698123	-0.30039381
